<?xml version="1.0" encoding="UTF-8"?><svg id="uuid-b79e74cf-0b6b-4dbd-b6cf-31762a215966" xmlns="http://www.w3.org/2000/svg" width="32" height="32" xmlns:xlink="http://www.w3.org/1999/xlink" viewBox="0 0 32 32"><defs><clipPath id="uuid-1c8419a0-0743-449d-afdc-e3a71b90f462"><rect width="32" height="32" style="fill:none; stroke-width:0px;"/></clipPath></defs><g style="clip-path:url(#uuid-1c8419a0-0743-449d-afdc-e3a71b90f462);"><path d="M14.07,18.67h2.51c.35,0,.69-.14.94-.39.25-.25.39-.59.39-.94h0c0-.19-.03-.36-.1-.52-.07-.16-.16-.31-.29-.43-.12-.12-.27-.22-.43-.29-.16-.07-.33-.1-.51-.1h-1.35c-.35,0-.69-.14-.94-.39-.25-.25-.39-.59-.39-.94s.14-.69.39-.94c.25-.25.59-.39.94-.39h2.22" style="fill:none; stroke:#fff; stroke-linecap:round; stroke-linejoin:round; stroke-width:2px;"/><path d="M20.82,18.67h2.51c.35,0,.69-.14.94-.39s.39-.59.39-.94h0c0-.36-.14-.7-.39-.95-.25-.25-.59-.39-.94-.39h-1.35c-.35,0-.69-.14-.94-.39-.25-.25-.39-.59-.39-.94s.14-.69.39-.94c.25-.25.59-.39.94-.39h2.22" style="fill:none; stroke:#fff; stroke-linecap:round; stroke-linejoin:round; stroke-width:2px;"/><path d="M10.89,13.33h-1.78c-.23,0-.46.05-.68.14-.22.09-.41.22-.58.39-.17.17-.3.36-.39.58-.09.22-.14.45-.14.68v1.78c0,.23.05.46.14.68.09.22.22.41.39.58.17.17.36.3.58.39.22.09.45.14.68.14h1.78" style="fill:none; stroke:#fff; stroke-linecap:round; stroke-linejoin:round; stroke-width:2px;"/><path d="M21.33,4h-10.67c-3.68,0-6.67,2.98-6.67,6.67v10.67c0,3.68,2.98,6.67,6.67,6.67h10.67c3.68,0,6.67-2.98,6.67-6.67v-10.67c0-3.68-2.98-6.67-6.67-6.67Z" style="fill:none; stroke:#fff; stroke-linecap:round; stroke-linejoin:round; stroke-width:2px;"/></g></svg>