<?xml version="1.0" encoding="UTF-8"?><svg id="uuid-98d5971e-9f3b-4829-840a-2f078bff02c9" xmlns="http://www.w3.org/2000/svg" width="28.67" height="26" viewBox="0 0 28.67 26"><path d="M25,1H3.67c-1.47,0-2.67,1.19-2.67,2.67v18.67c0,1.47,1.19,2.67,2.67,2.67h21.33c1.47,0,2.67-1.19,2.67-2.67V3.67c0-1.47-1.19-2.67-2.67-2.67Z" style="fill:none; stroke:#fff; stroke-linecap:round; stroke-linejoin:round; stroke-width:2px;"/><path d="M12.31,1c-.55,0-1.08.17-1.53.48-.45.32-.79.76-.98,1.28L2.41,23.21c-.07.2-.1.42-.07.63.03.21.11.41.23.59.12.18.29.32.48.42.19.1.4.15.61.15h11.43l-1.71-4.8h-3.67s4.24-11.87,4.24-11.87h.82l5.95,16.67h4.27c.21,0,.42-.05.61-.15.19-.1.35-.24.48-.42.12-.17.2-.38.23-.59.03-.21,0-.43-.07-.63L18.95,2.77c-.18-.52-.53-.97-.98-1.28-.45-.32-.99-.49-1.54-.49h-4.13Z" style="fill:none; stroke:#fff; stroke-linecap:round; stroke-linejoin:round; stroke-width:2px;"/></svg>