<?xml version="1.0" encoding="UTF-8"?><svg id="uuid-0dc6f5a7-9de6-4816-9d91-81c85f55064b" xmlns="http://www.w3.org/2000/svg" width="25.91" height="25.89" viewBox="0 0 25.91 25.89"><path d="M10.55,14.15c1.99,2.66,5.76,3.2,8.41,1.21.23-.17.45-.36.65-.56l3.61-3.61c2.31-2.39,2.24-6.19-.15-8.5-2.33-2.25-6.02-2.25-8.35,0l-2.07,2.06" style="fill:none; stroke:#fff; stroke-linecap:round; stroke-linejoin:round; stroke-width:2px;"/><path d="M15.36,11.74c-1.99-2.66-5.76-3.2-8.41-1.21-.23.17-.45.36-.65.56l-3.61,3.61c-2.31,2.39-2.24,6.19.15,8.5,2.33,2.25,6.02,2.25,8.35,0l2.06-2.06" style="fill:none; stroke:#fff; stroke-linecap:round; stroke-linejoin:round; stroke-width:2px;"/></svg>