<svg xmlns="http://www.w3.org/2000/svg" width="432" height="32" fill="none"><g clip-path="url(#a)"><path stroke="#75787B" stroke-linecap="round" stroke-linejoin="round" stroke-width="2" d="M16 12h-4m4 0V4m0 8v8m0-8h4a4 4 0 1 0 0-8h-4m-4 8a4 4 0 1 1 0-8h4m-4 8a4 4 0 1 0 0 8m0 0h4m-4 0a4 4 0 1 0 4 4v-4m6.828-6.828a4 4 0 1 1-5.656 5.656 4 4 0 0 1 5.656-5.656Z"/></g><g clip-path="url(#b)"><path stroke="#75787B" stroke-linecap="round" stroke-linejoin="round" stroke-miterlimit="10" stroke-width="2" d="m52.666 18.663.148 1.038L58 22.663l5.185-2.962.72-5.038h-11.81l-.762-5.333h13.333m-4.718 18.315 5.89-3.365a5.328 5.328 0 0 0 2.633-3.876l1.473-10.319a5.333 5.333 0 0 0-5.279-6.089h-13.33a5.334 5.334 0 0 0-5.28 6.088L47.5 20.212a5.331 5.331 0 0 0 2.912 4.024l7.028 3.483a2.667 2.667 0 0 0 2.507-.074Z"/></g><g clip-path="url(#c)"><path stroke="#75787B" stroke-linecap="round" stroke-linejoin="round" stroke-width="2" d="M92.457 11.638c-3.603.944-5.974 2.545-5.974 4.362 0 2.903 6.052 5.257 13.517 5.257a34.14 34.14 0 0 0 2.96-.13m-5.92 0a34.152 34.152 0 0 1-1.592-2.499c-3.733-6.465-4.72-12.882-2.206-14.334 1.572-.908 4.141.342 6.758 2.986m-7.552 13.08c-.981 3.589-.779 6.438.793 7.346 2.514 1.452 7.579-2.613 11.311-9.078.509-.881.962-1.76 1.367-2.628M100 24.721c2.617 2.645 5.187 3.894 6.759 2.986 2.514-1.451 1.526-7.869-2.206-14.334a34.035 34.035 0 0 0-1.593-2.498m4.592 9.484c3.599-.945 5.965-2.545 5.965-4.36 0-2.903-6.052-5.257-13.517-5.257-1.018 0-2.006.048-2.96.13M94.082 16c.405-.867.858-1.747 1.367-2.628 3.732-6.465 8.797-10.53 11.311-9.078 1.572.908 1.774 3.757.793 7.346M100.334 16a.338.338 0 0 1-.206.308.335.335 0 0 1-.455-.243.333.333 0 1 1 .661-.065Z"/></g><g clip-path="url(#d)"><path stroke="#75787B" stroke-linecap="round" stroke-linejoin="round" stroke-width="2" d="M145.988 19.333 141.995 10l-4.007 9.333m.896-2.088h6.21m-1.772 10.304 7.138-3.954a2.734 2.734 0 0 0 1.389-2.074l1.334-11.567a2.726 2.726 0 0 0-1.794-2.883l-8.473-3.022a2.729 2.729 0 0 0-1.833 0l-8.473 3.022a2.728 2.728 0 0 0-1.794 2.883l1.334 11.567a2.734 2.734 0 0 0 1.389 2.074l7.138 3.954a2.731 2.731 0 0 0 2.645 0Z"/></g><g clip-path="url(#e)"><path stroke="#75787B" stroke-linecap="round" stroke-linejoin="round" stroke-width="2" d="M176.048 17.465h4.623m.396 1.2-1.944-6h-1.512l-1.944 6m8.666-6h2.333a1.669 1.669 0 0 1 1.54 2.304 1.665 1.665 0 0 1-1.54 1.028h-2.333v-3.333Zm0 0v6m7.334-6v6M178.667 4h10.666A6.667 6.667 0 0 1 196 10.667v10.666A6.667 6.667 0 0 1 189.333 28h-10.666A6.667 6.667 0 0 1 172 21.333V10.667A6.667 6.667 0 0 1 178.667 4Z"/></g><g clip-path="url(#f)"><path stroke="#75787B" stroke-linecap="round" stroke-linejoin="round" stroke-width="2" d="m230.413 13.992 1.982 1.981-2.004 2.006m-8.804-3.971-1.982 1.981 2.004 2.004m5.401-5.326-2.005 6.666M220.667 4h10.666A6.667 6.667 0 0 1 238 10.667v10.666A6.667 6.667 0 0 1 231.333 28h-10.666A6.667 6.667 0 0 1 214 21.333V10.667A6.667 6.667 0 0 1 220.667 4Z"/></g><g stroke="#75787B" stroke-linecap="round" stroke-linejoin="round" stroke-width="2" clip-path="url(#g)"><path d="M266.065 18.665h2.513a1.335 1.335 0 0 0 1.333-1.333v-.012a1.321 1.321 0 0 0-.389-.939 1.323 1.323 0 0 0-.938-.388h-1.346a1.326 1.326 0 0 1-1.327-1.328 1.334 1.334 0 0 1 1.333-1.333h2.223M272.821 18.665h2.513a1.332 1.332 0 0 0 1.333-1.333v-.012a1.327 1.327 0 0 0-1.327-1.327h-1.346a1.326 1.326 0 0 1-1.327-1.328A1.332 1.332 0 0 1 274 13.332h2.223M262.889 13.332h-1.778a1.78 1.78 0 0 0-1.778 1.778v1.778a1.784 1.784 0 0 0 .521 1.257 1.782 1.782 0 0 0 1.257.52h1.778"/><path d="M273.333 4h-10.666A6.667 6.667 0 0 0 256 10.667v10.666A6.667 6.667 0 0 0 262.667 28h10.666A6.667 6.667 0 0 0 280 21.333V10.667A6.667 6.667 0 0 0 273.333 4Z"/></g><g stroke="#75787B" stroke-linecap="round" stroke-linejoin="round" stroke-width="2" clip-path="url(#h)"><path d="M302.667 28A4.666 4.666 0 0 1 298 23.333V6.667A2.667 2.667 0 0 1 300.667 4h4a2.665 2.665 0 0 1 2.666 2.667v16.666A4.664 4.664 0 0 1 302.667 28Z"/><path d="m305.966 26.632 12.948-12.948a2.667 2.667 0 0 0 0-3.77l-2.828-2.829a2.667 2.667 0 0 0-3.771 0l-4.983 4.98"/><path d="M313.934 18.666h5.4A2.666 2.666 0 0 1 322 21.333v4a2.667 2.667 0 0 1-2.666 2.666h-16.667M298 19.943h9.333M298 11.885h9.333"/></g><g stroke="#75787B" stroke-linecap="round" stroke-linejoin="round" clip-path="url(#i)"><path stroke-width="2" d="M341.333 26.666h21.333M352.495 21.86l-5.247-11.194L342 21.861"/><path stroke-width="1.7" d="m361.651 22.338-3.279-6.994-3.278 6.994"/><path stroke-width="2" d="M343.05 19.623h8.396"/><path stroke-width="1.7" d="M355.749 20.941h5.246"/></g><g stroke="#75787B" stroke-linecap="round" stroke-linejoin="round" stroke-width="2" clip-path="url(#j)"><path d="m406.719 7.42-10.307 17.853a2.787 2.787 0 0 1-4.824 0L381.281 7.42a1.394 1.394 0 0 1 1.206-2.089h8.171L394 11.12l3.342-5.788h8.171a1.394 1.394 0 0 1 1.206 2.089ZM402.682 5.332 394 20.37M394 20.37l-8.683-15.038"/></g><defs><clipPath id="a"><path fill="#fff" d="M0 0h32v32H0z"/></clipPath><clipPath id="b"><path fill="#fff" d="M0 0h32v32H0z" transform="translate(42)"/></clipPath><clipPath id="c"><path fill="#fff" d="M0 0h32v32H0z" transform="translate(84)"/></clipPath><clipPath id="d"><path fill="#fff" d="M0 0h32v32H0z" transform="translate(126)"/></clipPath><clipPath id="e"><path fill="#fff" d="M0 0h32v32H0z" transform="translate(168)"/></clipPath><clipPath id="f"><path fill="#fff" d="M0 0h32v32H0z" transform="translate(210)"/></clipPath><clipPath id="g"><path fill="#fff" d="M0 0h32v32H0z" transform="translate(252)"/></clipPath><clipPath id="h"><path fill="#fff" d="M0 0h32v32H0z" transform="translate(294)"/></clipPath><clipPath id="i"><path fill="#fff" d="M0 0h32v32H0z" transform="translate(336)"/></clipPath><clipPath id="j"><path fill="#fff" d="M0 0h32v32H0z" transform="translate(378)"/></clipPath></defs></svg>