<?xml version="1.0" encoding="UTF-8"?><svg id="uuid-871cf964-faf5-4ca2-8e33-5e5fcbd1a90c" xmlns="http://www.w3.org/2000/svg" width="32" height="32" xmlns:xlink="http://www.w3.org/1999/xlink" viewBox="0 0 32 32"><defs><clipPath id="uuid-636a6b54-e4f9-41f7-8499-ccf25fd0cf9c"><rect width="32" height="32" style="fill:none; stroke-width:0px;"/></clipPath></defs><g style="clip-path:url(#uuid-636a6b54-e4f9-41f7-8499-ccf25fd0cf9c);"><path id="uuid-b763add1-efe1-4c5a-8517-9fce65d732ef" d="M16,12h-4M16,12V4M16,12v8M16,12h4c2.21,0,4-1.79,4-4s-1.79-4-4-4h-4M12,12c-2.21,0-4-1.79-4-4s1.79-4,4-4h4M12,12c-2.21,0-4,1.79-4,4s1.79,4,4,4M12,20h4M12,20c-2.21,0-4,1.79-4,4s1.79,4,4,4,4-1.79,4-4v-4M22.83,13.17c1.56,1.56,1.56,4.09,0,5.66s-4.09,1.56-5.66,0c-1.56-1.56-1.56-4.09,0-5.66,1.56-1.56,4.09-1.56,5.66,0Z" style="fill:none; stroke:#fff; stroke-linecap:round; stroke-linejoin:round; stroke-width:2px;"/></g></svg>