<?xml version="1.0" encoding="UTF-8"?><svg id="uuid-52977632-318d-454d-9a52-7b271c7509b7" xmlns="http://www.w3.org/2000/svg" width="13.33" height="13.33" viewBox="0 0 13.33 13.33"><path d="M.67,8c.37,0,.67.3.67.67v2.67c0,.18.07.35.2.47.13.12.29.2.47.2h9.33c.18,0,.35-.07.47-.2s.2-.29.2-.47v-2.67c0-.37.3-.67.67-.67s.67.3.67.67v2.67c0,.53-.21,1.04-.59,1.41s-.88.59-1.41.59H2c-.53,0-1.04-.21-1.41-.59-.38-.38-.59-.88-.59-1.41v-2.67c0-.37.3-.67.67-.67Z" style="fill:#fff; fill-rule:evenodd; stroke-width:0px;"/><path d="M2.86,4.86c.26-.26.68-.26.94,0l2.86,2.86,2.86-2.86c.26-.26.68-.26.94,0,.26.26.26.68,0,.94l-3.33,3.33c-.26.26-.68.26-.94,0l-3.33-3.33c-.26-.26-.26-.68,0-.94Z" style="fill:#fff; fill-rule:evenodd; stroke-width:0px;"/><path d="M6.67,0c.37,0,.67.3.67.67v8c0,.37-.3.67-.67.67s-.67-.3-.67-.67V.67c0-.37.3-.67.67-.67Z" style="fill:#fff; fill-rule:evenodd; stroke-width:0px;"/></svg>